<svg xmlns="http://www.w3.org/2000/svg" xmlns:xlink="http://www.w3.org/1999/xlink" width="102" height="131"><defs><linearGradient x2="1" id="a" gradientUnits="userSpaceOnUse" gradientTransform="matrix(6.095 -13.69 -13.69 -6.095 172.578 556.914)"><stop offset="0" stop-color="#615b00"/><stop offset="1" stop-color="#fcd205"/></linearGradient><linearGradient x2="1" id="b" xlink:href="#a" gradientUnits="userSpaceOnUse" gradientTransform="matrix(11.532 -7.779 -7.779 -11.532 140.658 539.493)"><stop offset="0" stop-color="#ffd52b"/><stop offset=".464" stop-color="#ffd52b"/><stop offset=".565" stop-color="#776f10"/><stop offset="1" stop-color="#776f10"/></linearGradient><radialGradient cx="171.034" cy="515.78" r="23.4" fx="171.034" fy="515.78" id="g" xlink:href="#b" gradientUnits="userSpaceOnUse" gradientTransform="matrix(7.671 .059 .06 -7.753 -1237.697 4105.273)"/></defs><path d="M15.99 117.435c0-1.97-.78-3.404-2.443-5.085-1.13-1.21-1.478-1.805-1.478-2.81 0-.902.245-1.25.737-1.25.514 0 .76.43.924 1.846l2.16-.45c-.27-2.113-1.07-3.466-3.083-3.466-1.972 0-2.958 1.496-2.958 3.505 0 1.64.72 2.993 2.176 4.47 1.295 1.435 1.725 2.07 1.725 3.443 0 .924-.245 1.292-.82 1.292-.514 0-.82-.43-.985-2.173l-2.2.39c.207 2.44 1.13 3.875 3.185 3.875 1.952 0 3.06-1.476 3.06-3.587"/><path d="M23.96 116.717l-2.22-.33c-.204 2.05-.37 2.523-.883 2.523-.758 0-1.026-.86-1.026-5.33 0-4.448.247-5.248.967-5.248.595 0 .72.676.863 2.583l2.26-.328c-.124-2.564-.864-4.367-3.103-4.367-2.527 0-3.348 2.337-3.348 7.442 0 5.125.86 7.36 3.306 7.36 2.22 0 2.876-1.56 3.185-4.305"/><path d="M32.296 120.796v-14.35h-2.3v5.637h-1.89v-5.637h-2.3v14.35h2.3v-6.58h1.89v6.58h2.3"/><path d="M40.447 104.375c0-.677-.575-1.252-1.252-1.252-.7 0-1.275.575-1.275 1.252 0 .696.576 1.27 1.275 1.27.677 0 1.252-.574 1.252-1.27zm-3.226 0c0-.677-.574-1.252-1.25-1.252-.72 0-1.275.575-1.275 1.252 0 .696.555 1.27 1.274 1.27.676 0 1.25-.574 1.25-1.27zm3.72 9.205c0-4.9-.82-7.36-3.37-7.36-2.546 0-3.348 2.438-3.348 7.442 0 4.96.78 7.36 3.308 7.36 2.59 0 3.41-2.44 3.41-7.442zm-2.383.082c0 4.346-.246 5.248-.986 5.248-.72 0-.985-.943-.985-5.33 0-4.347.206-5.248.966-5.248.74 0 1.007.943 1.007 5.33"/><path d="M49.364 120.796v-14.35h-2.138v3.607c0 1.067.04 3.035.063 4.02-.27-1.087-.824-2.953-1.214-4.122l-1.13-3.504H42.87v14.35h2.137v-4.633c0-1.272-.04-3.22-.06-4.265.267 1.067.842 3.075 1.273 4.49l1.397 4.408h1.747" id="c"/><use transform="translate(42.454)" width="744.094" height="1052.362" xlink:href="#c"/><use transform="translate(33.711)" width="744.094" height="1052.362" xlink:href="#c"/><path d="M57.86 116.593c0-1.845-.68-2.747-1.726-3.26 1.026-.532 1.602-1.476 1.602-3.053 0-2.625-1.232-3.834-3.35-3.834h-2.772v14.35h2.73c2.365 0 3.515-1.558 3.515-4.203zm-2.405-6.252c0 1.517-.41 2.07-1.13 2.07h-.493v-4.018h.473c.78 0 1.15.493 1.15 1.95zm.102 6.275c0 1.598-.327 2.233-1.232 2.233h-.493v-4.55h.41c.945 0 1.315.635 1.315 2.317"/><path d="M66.12 120.796l-1.42-6.97c.802-.636 1.275-1.764 1.275-3.424 0-2.992-1.46-3.956-3.246-3.956h-3v14.35h2.28v-6.314h.575l1.19 6.314h2.344zm-2.468-10.29c0 1.516-.39 2.09-1.17 2.09h-.472v-4.204h.534c.802 0 1.108.533 1.108 2.113"/><path d="M74.37 117.126v-10.68h-2.3v10.865c0 1.17-.246 1.6-.924 1.6-.637 0-.966-.43-.966-1.62v-10.844h-2.3v10.825c0 2.316 1.15 3.752 3.225 3.752 2.24 0 3.266-1.394 3.266-3.896"/><path d="M14.49 92.378V91.12H9.813v1.258h1.693v7.914h1.288v-7.914h1.694" id="e"/><path d="M18.255 100.292h1.287V91.12h-1.287v9.172z"/><path d="M28.677 100.292v-1.245h-3.205v-3h1.983v-1.232h-1.983v-2.45h3.034V91.12h-4.32v9.172h4.49" id="f"/><path d="M37.94 100.292l-1.47-4.22c.866-.34 1.445-1.086 1.445-2.41 0-1.82-1.22-2.542-2.56-2.542H32.77v9.172h1.285v-3.996h1.064l1.39 3.996h1.43zm-1.35-6.59c0 .956-.513 1.36-1.34 1.36h-1.195v-2.697h1.195c.774 0 1.34.392 1.34 1.336" id="d"/><path d="M47.09 97.606v-2.03h-2.336v1.257h1.025v.655c0 1.127-.318 1.652-1.183 1.652-1.208 0-1.537-1.875-1.537-3.434 0-1.965.432-3.434 1.444-3.434.656 0 .997.34 1.208 1.285l1.287-.34c-.263-1.376-.96-2.24-2.456-2.24-1.917 0-2.81 1.964-2.81 4.73 0 2.62.813 4.73 2.77 4.73 1.852 0 2.587-1.284 2.587-2.83"/><path d="M56.57 100.292l-2.244-9.172H53l-2.26 9.172h1.366l.526-2.424h1.997l.536 2.424h1.405zm-2.205-3.642h-1.47l.34-1.547c.132-.616.33-1.665.395-2.005.065.34.26 1.402.394 2.005l.34 1.547"/><path d="M91.814 100.292V91.12h-1.262v4.036c0 .445.015 1.494.028 1.834-.118-.262-.46-1.113-.643-1.507l-1.982-4.363h-1.288v9.172h1.26v-4.586c0-.445-.012-1.494-.026-1.834.12.263.46 1.114.644 1.506l2.22 4.914h1.05"/><path d="M56.024 15.29c-4.372 1.376-13.012 4.723-21.78 11.688-8.437 6.702-14.674 14.86-18.538 24.244-4.652 11.306-6.562 20.31-5.836 27.53.164 1.62.774 2.63 1.63 2.694.91.07 1.75-.95 2.194-2.666.017-.074 1.817-7.194 4.146-12.814.527.724 2.12 2.8 4.614 5.147 2.847 2.687 7.485 6.29 13.415 8.215 6.49 2.11 13.202 2.56 19.412 1.303 6.28-1.27 12.088-4.297 16.802-8.757 4.753-4.497 8.268-10.295 10.162-16.765 1.043-3.56 1.565-7.246 1.565-10.94 0-3.258-.405-6.525-1.22-9.717-1.92-7.542-5.264-13.798-7.156-16.353 3.49-1.112 6.678-1.942 9.25-2.61 4.853-1.26 7.596-1.97 7.596-3.24 0-.04-.003-.08-.01-.125-.06-.445-.34-.827-.83-1.137-3.78-2.395-20.664-.343-35.416 4.305"/><path d="M35.87 79.328" fill="#231f20"/><use transform="translate(27.791)" width="84.56" height="113.044" xlink:href="#d"/><use transform="translate(59.501)" width="84.56" height="113.044" xlink:href="#e"/><use transform="translate(53.9)" width="84.56" height="113.044" xlink:href="#f"/><path d="M29.744 43.757c-1.543 1.724-2.423 3.083-3.618 4.925l-.802 1.234c-1.653 2.514-3.694 6.69-3.974 7.266.142.413 1.03 2.83 3.157 5.88 2.15 3.075 6.033 7.435 12.343 10.746 4.697 2.463 10.012 3.608 15.37 3.312 2.794-.155 5.562-.71 8.24-1.644 2.902-1.01 5.7-2.466 8.307-4.335l.227-.162c5.367-4.588 8.915-10.603 10.26-17.398.4-2.02.597-4.063.597-6.108 0-4.642-1.02-9.295-3.038-13.71-3.677-8.054-8.675-12.376-9.352-12.94-.63.228-4.206 1.523-6.48 2.524-2.16.952-4.253 1.915-6.26 3.097" fill="url(#g)"/><path d="M68.767 71.14L57.173 55.617c-.894.616-1.758 1.27-2.773 1.717l6.06 18.143c2.902-1.01 5.7-2.466 8.307-4.335z" fill="#fff"/><path d="M64.235 41.743a17.32 17.32 0 0 1-34.64 0 17.32 17.32 0 1 1 34.64 0z"/><path d="M46.404 39.536c0-2.216 1.82-4.014 4.068-4.014 2.247 0 4.068 1.798 4.068 4.014 0 2.217-1.82 4.014-4.068 4.014-2.247 0-4.068-1.797-4.068-4.014" fill="#fff"/><path d="M55.166 42.59c0-.775.64-1.404 1.425-1.404.787 0 1.425.63 1.425 1.405 0 .777-.638 1.407-1.424 1.407-.785 0-1.424-.63-1.424-1.406" fill="#fff"/></svg>